HIERARCHY
ROOT hip
{
  OFFSET 0 0 0
  CHANNELS 6 Xposition Yposition Zposition Zrotation Yrotation Xrotation
  JOINT abdomen
  {
    OFFSET 0 20.6881 -0.73152
    CHANNELS 3 Zrotation Xrotation Yrotation
    JOINT chest
    {
      OFFSET 0 11.7043 -0.48768
      CHANNELS 3 Zrotation Xrotation Yrotation
      JOINT neck
      {
        OFFSET 0 22.1894 -2.19456
        CHANNELS 3 Zrotation Xrotation Yrotation
        JOINT head
        {
          OFFSET -0.24384 7.07133 1.2192
          CHANNELS 3 Zrotation Xrotation Yrotation
          JOINT leftEye
          {
            OFFSET 4.14528 8.04674 8.04672
            CHANNELS 3 Zrotation Xrotation Yrotation
            End Site
            {
              OFFSET 1 0 0
            }
          }
          JOINT rightEye
          {
            OFFSET -3.6576 8.04674 8.04672
            CHANNELS 3 Zrotation Xrotation Yrotation
            End Site
            {
              OFFSET 1 0 0
            }
          }
        }
      }
      JOINT rCollar
      {
        OFFSET -2.68224 19.2634 -4.8768
        CHANNELS 3 Zrotation Xrotation Yrotation
        JOINT rShldr
        {
          OFFSET -8.77824 -1.95073 1.46304
          CHANNELS 3 Zrotation Xrotation Yrotation
          JOINT rForeArm
          {
            OFFSET -28.1742 -1.7115 0.48768
            CHANNELS 3 Zrotation Xrotation Yrotation
            JOINT rHand
            {
              OFFSET -22.5879 0.773209 7.07136
              CHANNELS 3 Zrotation Xrotation Yrotation
              JOINT rThumb1
              {
                OFFSET -1.2192 -0.487915 3.41376
                CHANNELS 3 Zrotation Xrotation Yrotation
                JOINT rThumb2
                {
                  OFFSET -3.37035 -0.52449 3.41376
                  CHANNELS 3 Zrotation Xrotation Yrotation
                  End Site
                  {
                    OFFSET -1.78271 -1.18214 1.43049
                  }
                }
              }
              JOINT rIndex1
              {
                OFFSET -7.75947 0.938293 5.60832
                CHANNELS 3 Zrotation Xrotation Yrotation
                JOINT rIndex2
                {
                  OFFSET -2.54057 -0.884171 1.56538
                  CHANNELS 3 Zrotation Xrotation Yrotation
                  End Site
                  {
                    OFFSET -1.62519 -0.234802 1.16502
                  }
                }
              }
              JOINT rMid1
              {
                OFFSET -8.24714 1.18213 3.41376
                CHANNELS 3 Zrotation Xrotation Yrotation
                JOINT rMid2
                {
                  OFFSET -3.10165 -0.590103 1.0647
                  CHANNELS 3 Zrotation Xrotation Yrotation
                  End Site
                  {
                    OFFSET -2.48547 -0.328903 0.83742
                  }
                }
              }
              JOINT rRing1
              {
                OFFSET -8.82822 0.546677 1.51678
                CHANNELS 3 Zrotation Xrotation Yrotation
                JOINT rRing2
                {
                  OFFSET -2.60934 -0.819778 -0.0198488
                  CHANNELS 3 Zrotation Xrotation Yrotation
                  End Site
                  {
                    OFFSET -2.33842 -0.294052 0.168128
                  }
                }
              }
              JOINT rPinky1
              {
                OFFSET -8.27202 -0.0477905 -0.4584
                CHANNELS 3 Zrotation Xrotation Yrotation
                JOINT rPinky2
                {
                  OFFSET -1.82734 -0.647385 -0.700984
                  CHANNELS 3 Zrotation Xrotation Yrotation
                  End Site
                  {
                    OFFSET -1.69225 -0.51767 -0.607171
                  }
                }
              }
            }
          }
        }
      }
      JOINT lCollar
      {
        OFFSET 2.68224 19.2634 -4.8768
        CHANNELS 3 Zrotation Xrotation Yrotation
        JOINT lShldr
        {
          OFFSET 8.77824 -1.95073 1.46304
          CHANNELS 3 Zrotation Xrotation Yrotation
          JOINT lForeArm
          {
            OFFSET 28.1742 -1.7115 0.48768
            CHANNELS 3 Zrotation Xrotation Yrotation
            JOINT lHand
            {
              OFFSET 22.5879 0.773209 7.07136
              CHANNELS 3 Zrotation Xrotation Yrotation
              JOINT lThumb1
              {
                OFFSET 1.2192 -0.487915 3.41376
                CHANNELS 3 Zrotation Xrotation Yrotation
                JOINT lThumb2
                {
                  OFFSET 3.37035 -0.52449 3.41376
                  CHANNELS 3 Zrotation Xrotation Yrotation
                  End Site
                  {
                    OFFSET 1.78271 -1.18214 1.43049
                  }
                }
              }
              JOINT lIndex1
              {
                OFFSET 7.75947 0.938293 5.60832
                CHANNELS 3 Zrotation Xrotation Yrotation
                JOINT lIndex2
                {
                  OFFSET 2.54057 -0.884171 1.56538
                  CHANNELS 3 Zrotation Xrotation Yrotation
                  End Site
                  {
                    OFFSET 1.62519 -0.234802 1.16502
                  }
                }
              }
              JOINT lMid1
              {
                OFFSET 8.24714 1.18213 3.41376
                CHANNELS 3 Zrotation Xrotation Yrotation
                JOINT lMid2
                {
                  OFFSET 3.10165 -0.590103 1.0647
                  CHANNELS 3 Zrotation Xrotation Yrotation
                  End Site
                  {
                    OFFSET 2.48547 -0.328903 0.83742
                  }
                }
              }
              JOINT lRing1
              {
                OFFSET 8.82822 0.546677 1.51678
                CHANNELS 3 Zrotation Xrotation Yrotation
                JOINT lRing2
                {
                  OFFSET 2.60934 -0.819778 -0.0198488
                  CHANNELS 3 Zrotation Xrotation Yrotation
                  End Site
                  {
                    OFFSET 2.33842 -0.294052 0.168128
                  }
                }
              }
              JOINT lPinky1
              {
                OFFSET 8.27202 -0.0477905 -0.4584
                CHANNELS 3 Zrotation Xrotation Yrotation
                JOINT lPinky2
                {
                  OFFSET 1.82734 -0.647385 -0.700984
                  CHANNELS 3 Zrotation Xrotation Yrotation
                  End Site
                  {
                    OFFSET 1.69225 -0.51767 -0.607171
                  }
                }
              }
            }
          }
        }
      }
    }
  }
  JOINT rButtock
  {
    OFFSET -8.77824 4.35084 1.2192
    CHANNELS 3 Zrotation Xrotation Yrotation
    JOINT rThigh
    {
      OFFSET 0 -1.70687 -2.19456
      CHANNELS 3 Zrotation Xrotation Yrotation
      JOINT rShin
      {
        OFFSET 0 -36.8199 0.73152
        CHANNELS 3 Zrotation Xrotation Yrotation
        JOINT rFoot
        {
          OFFSET 0.73152 -45.1104 -5.12064
          CHANNELS 3 Zrotation Xrotation Yrotation
          End Site
          {
            OFFSET -1.1221 -3.69964 12.103
          }
        }
      }
    }
  }
  JOINT lButtock
  {
    OFFSET 8.77824 4.35084 1.2192
    CHANNELS 3 Zrotation Xrotation Yrotation
    JOINT lThigh
    {
      OFFSET 0 -1.70687 -2.19456
      CHANNELS 3 Zrotation Xrotation Yrotation
      JOINT lShin
      {
        OFFSET 0 -36.8199 0.73152
        CHANNELS 3 Zrotation Xrotation Yrotation
        JOINT lFoot
        {
          OFFSET -0.73152 -45.1104 -5.12064
          CHANNELS 3 Zrotation Xrotation Yrotation
          End Site
          {
            OFFSET 1.1221 -3.69964 12.103
          }
        }
      }
    }
  }
}
MOTION
Frames:	6
Frame Time:	0.03333
133.49439999999998 74.77430000000001 -173.0857 -1.158552 -2.999846 3.179952 -6.055445 8.104549 32.258652 3.632755 -10.617636 -38.465063 0.254064 21.276099 86.495338 -25.942313 -1.764823 -117.256689 24.153236 -1.810706 -8.448403 -9.055282 -0.531373 6.702742 -148.178667 28.748485 148.972893 103.467297 -33.203669 127.211128 14.526897 -31.070909 41.937888 -7.722911 31.825311 -1.364561 68.277434 -54.313085 30.720366 -30.463456 22.457049 22.714957 -153.622126 -56.858764 136.661218 45.700184 75.274254 5.946132 -9.727745 48.99988 -4.028266 0.410553 -50.932733 21.610864 -144.981258 -72.476218 -169.50758 -155.287507 56.121135 150.672352 -5.617092 -39.272643 3.464521 -131.69658 -17.764989 -120.092547 -2.650026 8.073483 3.191255 101.242373 -15.57509 -151.830043 6.56455 1.892717 85.534232 -157.471478 -42.086067 -139.885764 -23.506254 -21.587768 -3.721517 137.887522 -89.044359 -144.953184 -2.13556 -5.356706 6.525214 162.357553 -30.982003 -82.238959 10.049917 36.910758 -9.961712 -18.667393 -47.371311 1.146994 15.961318 0.153628 -0.771455 -60.073846 -2.953349 10.262805 114.358087 -0.47536 154.036785 -61.429795 47.043046 -22.592278 -137.889932 61.122239 -20.085836 140.69942 27.702484 149.316622 53.502833 -19.405963 98.370419 97.116341 -22.503497 -174.785581 -51.278234 0.392789 -39.305773 57.322605 16.681931 -0.549015 -11.313577 40.156224 77.411084 -160.865072 -12.427812 24.517627
133.3484 74.75739999999999 -173.69989999999999 -1.245975 -2.142862 2.983147 -6.43442 8.138484 46.337032 1.399636 -11.41045 -52.536823 -17.63028 31.34012 -122.790207 22.793673 35.201264 90.652792 8.617058 -0.175048 -2.323126 -11.769061 -1.580396 15.244072 7.191665 -72.769583 -8.763165 -66.729034 -36.263413 -88.582604 177.020079 12.363372 -142.780855 -6.028628 27.951929 -2.334992 -170.678779 6.370216 92.488447 -30.414763 -23.399366 -15.78202 -143.631222 -24.594526 130.952836 -56.460749 -54.66704 -157.606326 -150.897823 -67.55795 -179.608428 -148.494549 -74.381742 141.987745 -137.845853 15.377513 159.079562 19.037116 -14.603712 12.876809 -19.847557 -59.155481 -18.81868 12.073893 47.406894 4.15176 3.035882 35.763804 -5.281234 117.893383 -14.469909 -122.205053 151.623169 -0.25272 126.157885 1.843306 5.951662 -3.706097 7.463536 7.640415 -2.761012 -96.685012 -65.427597 -19.740896 -16.509502 -41.587371 14.856944 31.477595 49.114386 -59.158008 39.032057 58.258432 -37.393715 123.918994 55.829953 -118.412596 15.824917 -14.833852 3.662146 -48.725352 -34.107443 26.724734 103.313356 -44.073701 131.336181 21.362648 55.463726 -95.883515 -7.459693 13.246421 -7.268886 6.084822 -41.747185 -167.636006 12.758372 -46.59745 133.168238 63.660986 23.049383 17.787653 -19.710703 -14.247598 -8.043265 25.64858 -1.604496 -91.105954 -38.995395 -2.057745 81.483267 -171.428811 -31.397848 -40.66206
133.0647 74.6566 -174.3294 -1.362071 -1.224313 2.791514 -3.483412 4.717798 -152.807153 -4.194286 5.849444 146.63285 -7.539984 14.953783 19.225753 1.030381 -23.591071 -46.212511 -10.505451 -0.572645 6.222731 -14.799507 -3.182336 24.145935 -10.434764 -87.329849 -29.695773 -83.432021 -37.643336 -86.010723 -170.414133 -17.791886 -141.322352 -0.700378 12.487253 -3.269905 156.626474 -28.663115 91.345262 -21.171059 -3.534408 -17.576307 -110.509663 31.983124 104.277181 -65.014198 -40.450759 -102.06338 -8.295066 36.206273 -7.464563 -13.934111 -29.078811 16.356074 -126.029964 36.617305 144.42045 -90.756256 62.996657 109.088722 5.220062 -27.396845 6.470865 -12.956195 -13.027373 -6.486698 3.549321 35.742981 -5.67656 -93.652237 -14.818321 -57.954262 -11.069444 35.027313 -58.818811 13.055506 34.544605 -6.827456 2.525338 4.801213 0.057075 -30.61796 -22.12583 -3.621843 21.961843 35.826887 -10.649141 -3.009139 -15.475747 -30.128096 -32.264022 -70.191848 -1.765788 9.148262 11.179641 0.070183 158.722085 14.345916 -174.322578 -143.342657 -66.249925 -168.734687 99.054877 71.925012 -161.41049 137.478962 9.123853 95.498913 8.863586 13.320328 0.716115 -20.653711 -40.421875 133.245834 42.249847 -25.297858 176.527243 -48.428697 -54.673897 40.022035 68.677198 71.358705 85.775407 -103.36134 53.898578 -87.063543 -26.269704 34.287263 -37.867338 23.81752 64.647851 67.428543
132.6508 74.46209999999999 -174.9545 -1.508377 -0.360659 2.630259 -5.187175 9.365813 18.813846 5.424179 -9.963024 -23.707022 2.193398 21.890621 78.329683 -29.847579 -4.96209 -106.207044 -25.27371 -3.03335 13.470315 -17.383561 -5.06537 32.274364 -162.795771 -50.525765 168.985413 -58.805945 -33.590166 -33.659931 3.666859 10.586971 -73.502253 166.600054 -17.674207 139.547527 -0.003458 -17.169316 -4.815679 98.969633 -56.726613 25.947219 -76.407542 45.323558 73.370104 -25.739457 32.626597 -58.328733 -7.630276 26.332589 -8.841697 -60.573975 30.684232 31.5567 -8.342573 -87.261874 -22.328096 110.008429 79.085171 -107.426381 -115.970363 -40.864544 -134.210823 -137.667477 36.878465 -163.736093 153.801911 -26.213838 -170.75453 39.275511 6.345335 39.455544 169.132087 3.077209 114.410318 7.668364 18.523256 -4.343724 178.944502 -20.837147 -91.997908 28.736656 -39.853324 22.170162 162.335782 -66.740223 -139.583432 -23.651891 79.498142 14.402334 -20.066726 -51.295596 4.876964 3.180317 -20.982484 8.963331 157.747874 11.544373 -173.887925 -160.254835 -64.005237 175.214841 -8.051618 -8.977414 -11.965932 144.301145 69.353159 -157.097796 132.661606 54.388142 25.115339 -152.977747 29.74114 152.549304 21.192017 -38.927497 -137.638369 -72.571746 12.697235 4.748066 -81.070037 46.383276 -73.73916 109.127818 56.267752 136.310769 40.680138 -19.339658 -43.231206 77.47801 -49.236272 -16.892611
132.1266 74.173 -175.55780000000001 -1.67708 0.502937 2.489375 -1.993034 8.23369 -67.628292 8.031349 2.40712 62.53082 -17.322429 28.985786 -93.334696 38.056471 20.668523 64.419394 -32.910359 -5.418571 18.204453 -19.133094 -6.780153 38.731001 -131.550739 55.1374 133.456089 168.981859 -1.996163 115.524389 -43.533833 67.937266 84.281877 3.148145 1.69398 -3.358008 177.15444 -4.419132 94.419809 -153.189731 -68.771639 170.432274 -81.862291 42.027299 79.033261 -50.662649 -25.330429 -70.312981 -6.752562 13.47814 -10.105492 -174.304297 16.491367 116.96107 -151.984442 -10.232234 166.070412 -15.748879 22.814901 0.632795 -60.27922 -64.131353 -80.330716 3.047256 10.436931 25.990504 120.490047 -80.920841 145.536073 -17.365686 -12.304233 58.918703 0.683758 -61.837723 110.315038 -169.733403 -26.03961 -146.45584 -0.716544 3.813247 4.71315 14.096475 7.560276 -27.383367 12.415811 31.624972 -0.378502 -53.454608 -30.720559 -46.828392 155.685213 -3.195072 -144.448444 -12.412932 -11.915082 -15.300373 14.333767 -39.502514 8.495238 94.502198 -40.901517 153.650059 149.747043 16.658848 162.105875 86.142297 -36.638475 95.579701 -49.799086 28.704398 -25.408695 68.078305 -21.530601 -80.737388 -35.777475 -33.727258 61.407211 -63.376832 -54.027935 29.741533 -64.348226 17.416761 -56.759585 76.383905 31.124168 -141.036854 -18.541601 -49.889491 -66.571289 -177.758299 68.940324 85.954903
131.5215 73.7919 -176.12 -1.864924 1.382827 2.335096 -3.417537 5.210858 -165.88575 -5.860398 4.985874 162.142449 5.880447 29.732523 117.571469 -35.228294 21.2391 -135.426314 -34.916391 -6.699387 21.085003 -20.203632 -8.022048 42.967222 -3.676683 11.977362 1.44701 64.325189 18.644063 5.983085 168.209941 1.714081 103.049226 172.213825 -0.136032 141.71996 -162.008356 18.5117 88.38284 -148.533199 34.160633 83.557138 99.258066 -76.002047 37.987143 -32.807509 25.773922 93.870857 -10.553645 24.067874 -5.270207 -0.994866 -42.829401 15.86977 2.982763 -56.0756 4.226334 46.609867 34.100933 -26.155386 -116.113416 38.695649 -162.965057 -116.268239 7.992185 -125.342165 5.230063 31.934659 -6.976764 109.332695 -6.531771 -119.675904 -25.88447 5.307632 114.693913 -179.229944 0.217021 -147.650268 3.369672 9.139096 5.586109 12.02502 3.462512 -26.253417 3.41932 19.871951 8.738755 172.663412 -1.731375 -75.067949 163.045618 -24.36023 -146.705469 161.474092 5.889903 -122.479686 21.819861 -63.935718 21.59739 102.913479 -30.816142 145.501059 48.98246 -67.48887 20.598163 3.782451 -23.149215 12.430535 -131.419604 57.226861 -17.126423 133.825645 23.332643 138.551299 42.139016 -5.224269 -95.50475 -149.393588 -16.959583 26.635548 -86.115201 83.579462 -96.530945 -162.069923 69.393446 166.118706 -5.739681 -47.969796 61.162434 87.940491 -29.436074 169.760983
